<svg xmlns="http://www.w3.org/2000/svg" xmlns:xlink="http://www.w3.org/1999/xlink" width="500" zoomAndPan="magnify" viewBox="0 0 375 374.999991" height="500" preserveAspectRatio="xMidYMid meet" version="1.0"><defs><g/></defs><rect x="-37.5" width="450" fill="#ffffff" y="-37.499999" height="449.999989" fill-opacity="1"/><rect x="-37.5" width="450" fill="#ffffff" y="-37.499999" height="449.999989" fill-opacity="1"/><g fill="#132d4f" fill-opacity="1"><g transform="translate(88.158801, 233.472817)"><g><path d="M 37.5 0 L 27.234375 0 L 14.640625 -26.046875 L 10.078125 0 L -0.1875 0 L 7.265625 -42.421875 L 17.515625 -42.421875 L 30.0625 -16.140625 L 34.6875 -42.421875 L 44.9375 -42.421875 Z M 37.5 0 "/></g></g></g><g fill="#132d4f" fill-opacity="1"><g transform="translate(131.718759, 233.472817)"><g><path d="M 25.859375 -43.078125 C 29.742188 -43.078125 33.101562 -42.304688 35.9375 -40.765625 C 38.78125 -39.222656 40.960938 -37.0625 42.484375 -34.28125 C 44.003906 -31.507812 44.765625 -28.300781 44.765625 -24.65625 C 44.765625 -23.09375 44.601562 -21.394531 44.28125 -19.5625 C 43.601562 -15.644531 42.191406 -12.175781 40.046875 -9.15625 C 37.910156 -6.132812 35.191406 -3.78125 31.890625 -2.09375 C 28.585938 -0.414062 24.914062 0.421875 20.875 0.421875 C 16.914062 0.421875 13.503906 -0.335938 10.640625 -1.859375 C 7.785156 -3.378906 5.609375 -5.519531 4.109375 -8.28125 C 2.609375 -11.039062 1.859375 -14.257812 1.859375 -17.9375 C 1.859375 -19.5 2.019531 -21.238281 2.34375 -23.15625 C 3.019531 -27.039062 4.4375 -30.492188 6.59375 -33.515625 C 8.757812 -36.535156 11.488281 -38.882812 14.78125 -40.5625 C 18.082031 -42.238281 21.773438 -43.078125 25.859375 -43.078125 Z M 25.078125 -33.546875 C 21.835938 -33.546875 19.066406 -32.492188 16.765625 -30.390625 C 14.460938 -28.285156 12.992188 -25.414062 12.359375 -21.78125 C 12.160156 -20.582031 12.0625 -19.582031 12.0625 -18.78125 C 12.0625 -15.78125 12.898438 -13.429688 14.578125 -11.734375 C 16.253906 -10.035156 18.613281 -9.1875 21.65625 -9.1875 C 24.851562 -9.1875 27.601562 -10.242188 29.90625 -12.359375 C 32.207031 -14.484375 33.675781 -17.320312 34.3125 -20.875 C 34.476562 -21.832031 34.5625 -22.851562 34.5625 -23.9375 C 34.5625 -26.9375 33.726562 -29.285156 32.0625 -30.984375 C 30.40625 -32.691406 28.078125 -33.546875 25.078125 -33.546875 Z M 25.078125 -33.546875 "/></g></g></g><g fill="#132d4f" fill-opacity="1"><g transform="translate(177.138714, 233.472817)"><g><path d="M 24.78125 -42.421875 C 29.175781 -42.421875 32.503906 -41.441406 34.765625 -39.484375 C 37.023438 -37.523438 38.15625 -34.925781 38.15625 -31.6875 C 38.15625 -30.6875 38.078125 -29.785156 37.921875 -28.984375 C 37.359375 -25.898438 36.035156 -23.273438 33.953125 -21.109375 C 31.878906 -18.953125 29.160156 -17.476562 25.796875 -16.6875 L 32.9375 0 L 21.59375 0 L 15.234375 -16.015625 L 12.90625 -16.015625 L 10.078125 0 L -0.1875 0 L 7.265625 -42.421875 Z M 27.359375 -28.375 C 27.441406 -28.9375 27.484375 -29.359375 27.484375 -29.640625 C 27.484375 -32.398438 25.78125 -33.78125 22.375 -33.78125 L 16.078125 -33.78125 L 14.09375 -23.046875 L 20.453125 -23.046875 C 24.453125 -23.046875 26.753906 -24.820312 27.359375 -28.375 Z M 27.359375 -28.375 "/></g></g></g><g fill="#132d4f" fill-opacity="1"><g transform="translate(214.098687, 233.472817)"><g><path d="M 27.1875 -42.84375 C 32.382812 -42.84375 36.441406 -41.507812 39.359375 -38.84375 C 42.273438 -36.1875 43.894531 -32.695312 44.21875 -28.375 L 33.421875 -28.375 C 32.941406 -29.894531 32.039062 -31.101562 30.71875 -32 C 29.394531 -32.90625 27.695312 -33.359375 25.625 -33.359375 C 22.382812 -33.359375 19.582031 -32.265625 17.21875 -30.078125 C 14.863281 -27.898438 13.363281 -24.953125 12.71875 -21.234375 C 12.519531 -20.234375 12.421875 -19.132812 12.421875 -17.9375 C 12.421875 -14.9375 13.269531 -12.644531 14.96875 -11.0625 C 16.664062 -9.488281 19.132812 -8.703125 22.375 -8.703125 C 24.820312 -8.703125 27.082031 -9.367188 29.15625 -10.703125 C 31.238281 -12.046875 32.878906 -13.957031 34.078125 -16.4375 L 21.125 -16.4375 L 22.4375 -23.8125 L 43.921875 -23.8125 L 42.1875 -13.6875 C 40.300781 -9.476562 37.46875 -6.082031 33.6875 -3.5 C 29.90625 -0.925781 25.253906 0.359375 19.734375 0.359375 C 16.015625 0.359375 12.816406 -0.347656 10.140625 -1.765625 C 7.460938 -3.191406 5.410156 -5.203125 3.984375 -7.796875 C 2.566406 -10.398438 1.859375 -13.441406 1.859375 -16.921875 C 1.859375 -18.554688 2 -20.15625 2.28125 -21.71875 C 3 -25.800781 4.507812 -29.441406 6.8125 -32.640625 C 9.113281 -35.835938 12.019531 -38.335938 15.53125 -40.140625 C 19.050781 -41.941406 22.9375 -42.84375 27.1875 -42.84375 Z M 27.1875 -42.84375 "/></g></g></g><g fill="#132d4f" fill-opacity="1"><g transform="translate(258.618651, 233.472817)"><g><path d="M 16.078125 -34.265625 L 14.578125 -25.375 L 28.859375 -25.375 L 27.484375 -17.640625 L 13.140625 -17.640625 L 11.515625 -8.21875 L 27.65625 -8.21875 L 26.21875 0 L -0.1875 0 L 7.265625 -42.421875 L 33.65625 -42.421875 L 32.21875 -34.265625 Z M 16.078125 -34.265625 "/></g></g></g><path fill="#132d4f" d="M 286.210938 149.828125 L 271.933594 160.3125 C 272.21875 158.316406 272.453125 156.699219 272.71875 154.824219 C 268.582031 154.824219 264.582031 154.773438 260.574219 154.882812 C 260.128906 154.882812 259.414062 155.714844 259.3125 156.253906 C 258.257812 161.9375 257.25 167.621094 256.335938 173.304688 C 255.910156 175.941406 257.199219 177.265625 260.171875 177.34375 C 263.140625 177.417969 266.144531 177.34375 269.425781 177.34375 C 268.722656 181.421875 268.089844 185.28125 267.351562 189.121094 C 267.09375 189.628906 266.683594 189.910156 266.117188 189.976562 C 261.585938 189.976562 257.023438 190.121094 252.535156 189.660156 C 244.414062 188.820312 240.527344 184.09375 241.367188 175.914062 C 242.0625 169.320312 243.433594 162.796875 244.496094 156.238281 C 244.558594 155.878906 244.59375 155.519531 244.660156 154.9375 C 236.28125 154.519531 228.066406 154.238281 221.796875 161.347656 C 219.164062 164.324219 218.539062 167.949219 217.902344 171.632812 C 216.859375 177.671875 215.777344 183.710938 214.683594 189.878906 L 199.882812 189.878906 C 202.671875 174.039062 205.433594 158.296875 208.207031 142.507812 L 222.914062 142.507812 C 222.527344 145.097656 222.15625 147.5625 221.6875 150.679688 C 222.6875 149.726562 223.28125 149.171875 223.855469 148.601562 C 228.070312 144.472656 233.058594 142.230469 239.023438 142.398438 C 240.921875 142.449219 242.816406 142.3125 244.710938 142.4375 C 246.40625 142.550781 247.171875 142.066406 247.386719 140.234375 C 247.746094 137.125 248.441406 134.054688 248.996094 130.921875 L 263.773438 130.921875 C 263.140625 134.714844 262.511719 138.351562 261.878906 142.210938 L 274.886719 142.210938 L 275.8125 137.613281 Z M 286.210938 149.828125 " fill-opacity="1" fill-rule="nonzero"/><path fill="#132d4f" d="M 200.667969 142.519531 C 197.835938 158.460938 195.054688 174.101562 192.253906 189.894531 L 177.585938 189.894531 C 178.003906 187.519531 178.40625 185.242188 178.898438 182.425781 C 178.160156 183.25 177.757812 183.691406 177.363281 184.132812 C 170.808594 191.585938 158.402344 192.929688 151.394531 186.90625 C 147.742188 183.746094 146.136719 179.609375 145.761719 174.902344 C 144.992188 165.335938 147.027344 156.585938 153.625 149.285156 C 158.585938 143.808594 164.933594 141.332031 172.3125 141.894531 C 177.667969 142.304688 181.992188 144.558594 184.492188 150.257812 L 185.996094 142.488281 Z M 182.027344 163.851562 C 182.167969 159.214844 179.808594 155.785156 175.789062 155.007812 C 174.925781 154.820312 174.054688 154.734375 173.171875 154.75 C 172.289062 154.761719 171.417969 154.878906 170.558594 155.09375 C 169.703125 155.304688 168.882812 155.613281 168.097656 156.015625 C 167.308594 156.421875 166.578125 156.90625 165.90625 157.476562 C 162.632812 160.167969 161.355469 163.792969 160.90625 167.855469 C 160.191406 174.324219 164.667969 178.59375 171.101562 177.582031 C 177.359375 176.597656 181.8125 171 182.027344 163.851562 Z M 182.027344 163.851562 " fill-opacity="1" fill-rule="nonzero"/><path fill="#132d4f" d="M 66.058594 171.808594 L 81.539062 171.808594 C 81.601562 172.230469 81.671875 172.574219 81.695312 172.921875 C 82.023438 177.140625 84.816406 179.421875 89.140625 178.996094 C 92.996094 178.617188 95.707031 175.53125 94.941406 171.734375 C 94.457031 169.882812 93.441406 168.386719 91.902344 167.25 C 89.804688 165.746094 87.195312 164.957031 84.875 163.738281 C 81.4375 161.898438 77.675781 160.371094 74.617188 157.988281 C 67.664062 152.59375 69.105469 139.671875 75.109375 134.675781 C 81 129.761719 87.882812 128.421875 95.234375 128.902344 C 97.867188 129.066406 100.441406 129.550781 102.957031 130.355469 C 110.046875 132.667969 114.300781 138.90625 114.210938 146.738281 L 98.824219 146.738281 C 97.628906 141.167969 94.304688 139.070312 89.8125 140.871094 C 85.890625 142.445312 84.875 147.066406 87.914062 149.984375 C 89 150.976562 90.210938 151.769531 91.546875 152.375 C 94.652344 153.84375 97.867188 155.109375 100.964844 156.550781 C 106.699219 159.183594 110.832031 163.066406 111.191406 169.8125 C 111.582031 177.5 108.675781 183.527344 101.902344 187.164062 C 93.230469 191.820312 84.152344 191.996094 75.355469 187.746094 C 68.949219 184.675781 66.222656 178.996094 66.058594 171.808594 Z M 66.058594 171.808594 " fill-opacity="1" fill-rule="nonzero"/><path fill="#132d4f" d="M 133.570312 154.8125 C 132.476562 161.203125 131.335938 167.445312 130.410156 173.699219 C 130.070312 175.996094 131.246094 177.113281 133.773438 177.304688 C 135.511719 177.429688 137.261719 177.304688 139.246094 177.304688 C 138.488281 181.597656 137.773438 185.660156 137.015625 189.9375 C 132.003906 190.027344 127.035156 190.480469 122.265625 188.675781 C 117.113281 186.703125 114.554688 182.15625 115.4375 175.625 C 116.507812 167.734375 117.96875 159.910156 119.3125 152.0625 C 120.527344 145.019531 121.839844 137.996094 123.105469 130.921875 L 137.835938 130.921875 L 135.941406 142.417969 L 153.636719 142.417969 C 149.65625 145.515625 146.636719 149.371094 144.582031 153.976562 C 144.378906 154.425781 143.429688 154.753906 142.816406 154.773438 C 139.777344 154.855469 136.792969 154.8125 133.570312 154.8125 Z M 133.570312 154.8125 " fill-opacity="1" fill-rule="nonzero"/></svg>